# xmcd
#
# Track frame offsets:
#	150
#	18001
#	32112
#	44622
#	58449
#	68951
#	87466
#	99149
#	111661
#	125312
#	136911
#	154839
#	167927
#	183294
#	201173
#	217411
#
# Disc length: 3176 seconds
#
# Revision: 1
# Processed by: cddbd v1.5.1PL0 Copyright (c) Steve Scherf et al.
# Submitted via: EasyCDDAExtractor 5.1.0
#
DISCID=f00c6610
DTITLE=Various Artist - country
DYEAR=1900
DGENRE=Country
TTITLE0=Chatahoochie
TTITLE1=Fais Do Do
TTITLE2=Down on the Corner
TTITLE3=Drivin my life away
TTITLE4=Wooly Bully
TTITLE5=peziricco
TTITLE6=Cowboy's Sweetheart
TTITLE7=Track23
TTITLE8=Track04
TTITLE9=electric reel
TTITLE10=Track12
TTITLE11=Track22
TTITLE12=Track20
TTITLE13=compilation - Track16
TTITLE14=Track15
TTITLE15=Track11
EXTD=
EXTT0=
EXTT1=
EXTT2=
EXTT3=
EXTT4=
EXTT5=
EXTT6=
EXTT7=
EXTT8=
EXTT9=
EXTT10=
EXTT11=
EXTT12=
EXTT13=
EXTT14=
EXTT15=
PLAYORDER=
